<svg xmlns="http://www.w3.org/2000/svg" viewBox="0 0 128 128">
  <!-- 왼쪽 중괄호 { -->
  <path
    d="M34 22c-7 0-11 4-11 11v22c0 7-3 11-11 11 8 0 11 4 11 11v22c0 7 4 11 11 11"
    fill="none"
    stroke-width="6.5"
    stroke-linecap="round"
    class="bracket"
  />
  <!-- 오른쪽 중괄호 } -->
  <path
    d="M94 22c7 0 11 4 11 11v22c0 7 3 11 11 11-8 0-11 4-11 11v22c0 7-4 11-11 11"
    fill="none"
    stroke-width="6.5"
    stroke-linecap="round"
    class="bracket"
  />
  <!-- f: 줄기 -->
  <path
    d="M46 85 C48 61 52 47 58 43 C62 40 66 42 65 47"
    fill="none"
    stroke-width="5"
    stroke-linecap="round"
    stroke-linejoin="round"
    class="fe-text"
  />
  <!-- f: 가로 획 -->
  <path
    d="M43 63 L62 63"
    fill="none"
    stroke-width="5"
    stroke-linecap="round"
    class="fe-text"
  />
  <!-- e -->
  <path
    d="M68 67 L84 65 C82 55 77 51 72 53 C66 55 64 63 66 73 C68 81 72 84 78 82 C81 81 83 78 84 75"
    fill="none"
    stroke-width="5"
    stroke-linecap="round"
    stroke-linejoin="round"
    class="fe-text"
  />
  <style>
    .bracket { stroke: #111827; }
    .fe-text { stroke: #111827; }
    @media (prefers-color-scheme: dark) {
      .bracket { stroke: #f1f5f9; }
      .fe-text { stroke: #f1f5f9; }
    }
  </style>
</svg>
